<svg xmlns="http://www.w3.org/2000/svg" xmlns:xlink="http://www.w3.org/1999/xlink" style="display:block;background-color: #2E2E2E;" width="1120" height="795" viewBox="0,0,1120,795"><defs>undefined<linearGradient id="lw47o29w0zgbofw673sxn" x1="0%" y1="0%" x2="0%" y2="100%"><stop offset="0%" style="stop-color:#fff;stop-opacity:1"></stop><stop offset="100%" style="stop-color:#eee;stop-opacity:1"></stop></linearGradient><filter id="t47j80rqaxyzviuk9ac0p" x="0" y="0" width="200%" height="200%"><feOffset result="offOut" in="SourceAlpha" dx="5" dy="5"></feOffset><feGaussianBlur result="blurOut" in="offOut" stdDeviation="5"></feGaussianBlur><feBlend in="SourceGraphic" in2="blurOut" mode="normal"></feBlend></filter><linearGradient id="ul0e5ycvz8gi77fbnc9kv" x1="0%" y1="0%" x2="0%" y2="100%"><stop offset="0%" style="stop-color:#646464;stop-opacity:1"></stop><stop offset="100%" style="stop-color:#363636;stop-opacity:1"></stop></linearGradient> <filter id="grayscale"><feColorMatrix type="matrix" values="0.3333 0.3333 0.3333 0 0 0.3333 0.3333 0.3333 0 0 0.3333 0.3333 0.3333 0 0 0 0 0 1 0"></feColorMatrix></filter><filter x="-50%" y="-50%" width="200%" height="200%" filterUnits="objectBoundingBox" id="isla-shadow"><feOffset dx="0" dy="4" in="SourceAlpha" result="shadowOffsetOuter1"></feOffset><feGaussianBlur stdDeviation="10" in="shadowOffsetOuter1" result="shadowBlurOuter1"></feGaussianBlur><feColorMatrix values="0 0 0 0 0   0 0 0 0 0   0 0 0 0 0  0 0 0 0.2 0" in="shadowBlurOuter1" type="matrix" result="shadowMatrixOuter1"></feColorMatrix><feMerge><feMergeNode in="shadowMatrixOuter1"></feMergeNode><feMergeNode in="SourceGraphic"></feMergeNode></feMerge></filter></defs><g node-id="1" style="opacity: 1" transform="matrix(1,0,0,1,435,0)" class="node" sl="0" l="0"><rect fill="url(#ul0e5ycvz8gi77fbnc9kv)" x="0" y="0" height="120" width="250" stroke-width="1" stroke="#aeaeae" rx="5" ry="5"></rect><text width="235" style="font-size: 18px;" fill="#aeaeae" x="125" y="90" text-anchor="middle">Jack Hill</text><text width="140" style="font-size: 14px;" fill="#aeaeae" x="240" y="30" text-anchor="end">Chairman and CEO</text><clipPath id="bv0ee2c125onhc0s972kzo"><circle cx="50" cy="25" r="40"></circle></clipPath><image preserveAspectRatio="xMidYMid slice" clip-path="url(#bv0ee2c125onhc0s972kzo)" xlink:href="https://cdn.balkan.app/shared/1.jpg" x="10" y="-15" width="80" height="80"></image></g><g node-id="2" style="opacity: 1" transform="matrix(1,0,0,1,0,180)" class="node" sl="1" l="1"><rect fill="url(#ul0e5ycvz8gi77fbnc9kv)" x="0" y="0" height="120" width="250" stroke-width="1" stroke="#aeaeae" rx="5" ry="5"></rect><text width="235" style="font-size: 18px;" fill="#aeaeae" x="125" y="90" text-anchor="middle">Lexie Cole</text><text width="140" style="font-size: 14px;" fill="#aeaeae" x="240" y="30" text-anchor="end">QA Lead</text><clipPath id="d1io6dtatstoh239xa42r"><circle cx="50" cy="25" r="40"></circle></clipPath><image preserveAspectRatio="xMidYMid slice" clip-path="url(#d1io6dtatstoh239xa42r)" xlink:href="https://cdn.balkan.app/shared/2.jpg" x="10" y="-15" width="80" height="80"></image></g><g node-id="5" style="opacity: 1" transform="matrix(1,0,0,1,0,360)" class="node tree-layout" sl="2" l="2"><rect fill="url(#ul0e5ycvz8gi77fbnc9kv)" x="0" y="0" height="120" width="250" stroke-width="1" stroke="#aeaeae" rx="5" ry="5"></rect><text width="235" style="font-size: 18px;" fill="#aeaeae" x="125" y="90" text-anchor="middle">Elliot Ross</text><text width="140" style="font-size: 14px;" fill="#aeaeae" x="240" y="30" text-anchor="end">QA</text><clipPath id="sxeprzlcmdbeg23y2a40a"><circle cx="50" cy="25" r="40"></circle></clipPath><image preserveAspectRatio="xMidYMid slice" clip-path="url(#sxeprzlcmdbeg23y2a40a)" xlink:href="https://cdn.balkan.app/shared/5.jpg" x="10" y="-15" width="80" height="80"></image></g><g node-id="6" style="opacity: 1" transform="matrix(1,0,0,1,0,495)" class="node tree-layout" sl="3" l="2"><rect fill="url(#ul0e5ycvz8gi77fbnc9kv)" x="0" y="0" height="120" width="250" stroke-width="1" stroke="#aeaeae" rx="5" ry="5"></rect><text width="235" style="font-size: 18px;" fill="#aeaeae" x="125" y="90" text-anchor="middle">Anahi Gordon</text><text width="140" style="font-size: 14px;" fill="#aeaeae" x="240" y="30" text-anchor="end">QA</text><clipPath id="q86txiki0gsjisaa02ryir"><circle cx="50" cy="25" r="40"></circle></clipPath><image preserveAspectRatio="xMidYMid slice" clip-path="url(#q86txiki0gsjisaa02ryir)" xlink:href="https://cdn.balkan.app/shared/6.jpg" x="10" y="-15" width="80" height="80"></image></g><g node-id="7" style="opacity: 1" transform="matrix(1,0,0,1,0,630)" class="node tree-layout" sl="4" l="2"><rect fill="url(#ul0e5ycvz8gi77fbnc9kv)" x="0" y="0" height="120" width="250" stroke-width="1" stroke="#aeaeae" rx="5" ry="5"></rect><text width="235" style="font-size: 18px;" fill="#aeaeae" x="125" y="90" text-anchor="middle">Knox Macias</text><text width="140" style="font-size: 14px;" fill="#aeaeae" x="240" y="30" text-anchor="end">QA</text><clipPath id="ur4h3obhlkjdipobexvr9"><circle cx="50" cy="25" r="40"></circle></clipPath><image preserveAspectRatio="xMidYMid slice" clip-path="url(#ur4h3obhlkjdipobexvr9)" xlink:href="https://cdn.balkan.app/shared/7.jpg" x="10" y="-15" width="80" height="80"></image></g><g node-id="3" style="opacity: 1" transform="matrix(1,0,0,1,435,180)" class="node" sl="1" l="1"><rect fill="url(#ul0e5ycvz8gi77fbnc9kv)" x="0" y="0" height="120" width="250" stroke-width="1" stroke="#aeaeae" rx="5" ry="5"></rect><text width="235" style="font-size: 18px;" fill="#aeaeae" x="125" y="90" text-anchor="middle">Janae Barrett</text><text width="140" style="font-size: 14px;" fill="#aeaeae" x="240" y="30" text-anchor="end">Technical Director</text><clipPath id="imiixc5ei5q6imk20s8nb8"><circle cx="50" cy="25" r="40"></circle></clipPath><image preserveAspectRatio="xMidYMid slice" clip-path="url(#imiixc5ei5q6imk20s8nb8)" xlink:href="https://cdn.balkan.app/shared/3.jpg" x="10" y="-15" width="80" height="80"></image></g><g node-id="8" style="opacity: 1" transform="matrix(1,0,0,1,290,360)" class="node" sl="2" l="2"><rect fill="url(#ul0e5ycvz8gi77fbnc9kv)" x="0" y="0" height="120" width="250" stroke-width="1" stroke="#aeaeae" rx="5" ry="5"></rect><text width="235" style="font-size: 18px;" fill="#aeaeae" x="125" y="90" text-anchor="middle">Nash Ingram</text><text width="140" style="font-size: 14px;" fill="#aeaeae" x="240" y="30" text-anchor="end">.NET Team Lead</text><clipPath id="ohoi1u49rzj9iux8rq12vp"><circle cx="50" cy="25" r="40"></circle></clipPath><image preserveAspectRatio="xMidYMid slice" clip-path="url(#ohoi1u49rzj9iux8rq12vp)" xlink:href="https://cdn.balkan.app/shared/8.jpg" x="10" y="-15" width="80" height="80"></image></g><g node-id="10" style="opacity: 1" transform="matrix(1,0,0,1,290,540)" class="node tree-layout" sl="3" l="3"><rect fill="url(#ul0e5ycvz8gi77fbnc9kv)" x="0" y="0" height="120" width="250" stroke-width="1" stroke="#aeaeae" rx="5" ry="5"></rect><text width="235" style="font-size: 18px;" fill="#aeaeae" x="125" y="90" text-anchor="middle">Alice Gray</text><text width="140" style="font-size: 14px;" fill="#aeaeae" x="240" y="30" text-anchor="end">Programmer</text><clipPath id="5u5uf2rdrl97c37hxhhdfd"><circle cx="50" cy="25" r="40"></circle></clipPath><image preserveAspectRatio="xMidYMid slice" clip-path="url(#5u5uf2rdrl97c37hxhhdfd)" xlink:href="https://cdn.balkan.app/shared/10.jpg" x="10" y="-15" width="80" height="80"></image></g><g node-id="11" style="opacity: 1" transform="matrix(1,0,0,1,290,675)" class="node tree-layout" sl="4" l="3"><rect fill="url(#ul0e5ycvz8gi77fbnc9kv)" x="0" y="0" height="120" width="250" stroke-width="1" stroke="#aeaeae" rx="5" ry="5"></rect><text width="235" style="font-size: 18px;" fill="#aeaeae" x="125" y="90" text-anchor="middle">Anne Ewing</text><text width="140" style="font-size: 14px;" fill="#aeaeae" x="240" y="30" text-anchor="end">Programmer</text><clipPath id="1en2sde4ogdzzov4wjv43e"><circle cx="50" cy="25" r="40"></circle></clipPath><image preserveAspectRatio="xMidYMid slice" clip-path="url(#1en2sde4ogdzzov4wjv43e)" xlink:href="https://cdn.balkan.app/shared/11.jpg" x="10" y="-15" width="80" height="80"></image></g><g node-id="9" style="opacity: 1" transform="matrix(1,0,0,1,580,360)" class="node" sl="2" l="2"><rect fill="url(#ul0e5ycvz8gi77fbnc9kv)" x="0" y="0" height="120" width="250" stroke-width="1" stroke="#aeaeae" rx="5" ry="5"></rect><text width="235" style="font-size: 18px;" fill="#aeaeae" x="125" y="90" text-anchor="middle">Sage Barnett</text><text width="140" style="font-size: 14px;" fill="#aeaeae" x="240" y="30" text-anchor="end">JS Team Lead</text><clipPath id="dmei2gggsr6rhr315tt5zg"><circle cx="50" cy="25" r="40"></circle></clipPath><image preserveAspectRatio="xMidYMid slice" clip-path="url(#dmei2gggsr6rhr315tt5zg)" xlink:href="https://cdn.balkan.app/shared/9.jpg" x="10" y="-15" width="80" height="80"></image></g><g node-id="12" style="opacity: 1" transform="matrix(1,0,0,1,580,540)" class="node tree-layout" sl="3" l="3"><rect fill="url(#ul0e5ycvz8gi77fbnc9kv)" x="0" y="0" height="120" width="250" stroke-width="1" stroke="#aeaeae" rx="5" ry="5"></rect><text width="235" style="font-size: 18px;" fill="#aeaeae" x="125" y="90" text-anchor="middle">Reuben Mcleod</text><text width="140" style="font-size: 14px;" fill="#aeaeae" x="240" y="30" text-anchor="end">Programmer</text><clipPath id="dzulxhmy1cjwg7rhmdysk"><circle cx="50" cy="25" r="40"></circle></clipPath><image preserveAspectRatio="xMidYMid slice" clip-path="url(#dzulxhmy1cjwg7rhmdysk)" xlink:href="https://cdn.balkan.app/shared/12.jpg" x="10" y="-15" width="80" height="80"></image></g><g node-id="13" style="opacity: 1" transform="matrix(1,0,0,1,580,675)" class="node tree-layout" sl="4" l="3"><rect fill="url(#ul0e5ycvz8gi77fbnc9kv)" x="0" y="0" height="120" width="250" stroke-width="1" stroke="#aeaeae" rx="5" ry="5"></rect><text width="235" style="font-size: 18px;" fill="#aeaeae" x="125" y="90" text-anchor="middle">Ariel Wiley</text><text width="140" style="font-size: 14px;" fill="#aeaeae" x="240" y="30" text-anchor="end">Programmer</text><clipPath id="mifwca6wa71ahmhp33dpg"><circle cx="50" cy="25" r="40"></circle></clipPath><image preserveAspectRatio="xMidYMid slice" clip-path="url(#mifwca6wa71ahmhp33dpg)" xlink:href="https://cdn.balkan.app/shared/13.jpg" x="10" y="-15" width="80" height="80"></image></g><g node-id="4" style="opacity: 1" transform="matrix(1,0,0,1,870,180)" class="node" sl="1" l="1"><rect fill="url(#ul0e5ycvz8gi77fbnc9kv)" x="0" y="0" height="120" width="250" stroke-width="1" stroke="#aeaeae" rx="5" ry="5"></rect><text width="235" style="font-size: 18px;" fill="#aeaeae" x="125" y="90" text-anchor="middle">Aaliyah Webb</text><text width="140" style="font-size: 14px;" fill="#aeaeae" x="240" y="30" text-anchor="end">Manager</text><clipPath id="lkjx8wa142dj132ny1ppkf"><circle cx="50" cy="25" r="40"></circle></clipPath><image preserveAspectRatio="xMidYMid slice" clip-path="url(#lkjx8wa142dj132ny1ppkf)" xlink:href="https://cdn.balkan.app/shared/4.jpg" x="10" y="-15" width="80" height="80"></image></g><g node-id="14" style="opacity: 1" transform="matrix(1,0,0,1,870,360)" class="node tree-layout" sl="2" l="2"><rect fill="url(#ul0e5ycvz8gi77fbnc9kv)" x="0" y="0" height="120" width="250" stroke-width="1" stroke="#aeaeae" rx="5" ry="5"></rect><text width="235" style="font-size: 18px;" fill="#aeaeae" x="125" y="90" text-anchor="middle">Lucas West</text><text width="140" style="font-size: 14px;" fill="#aeaeae" x="240" y="30" text-anchor="end">Marketer</text><clipPath id="tov7oo69gx9rlsao1f5i2"><circle cx="50" cy="25" r="40"></circle></clipPath><image preserveAspectRatio="xMidYMid slice" clip-path="url(#tov7oo69gx9rlsao1f5i2)" xlink:href="https://cdn.balkan.app/shared/14.jpg" x="10" y="-15" width="80" height="80"></image></g><g node-id="15" style="opacity: 1" transform="matrix(1,0,0,1,870,495)" class="node tree-layout" sl="3" l="2"><rect fill="url(#ul0e5ycvz8gi77fbnc9kv)" x="0" y="0" height="120" width="250" stroke-width="1" stroke="#aeaeae" rx="5" ry="5"></rect><text width="235" style="font-size: 18px;" fill="#aeaeae" x="125" y="90" text-anchor="middle">Adan Travis</text><text width="140" style="font-size: 14px;" fill="#aeaeae" x="240" y="30" text-anchor="end">Designer</text><clipPath id="sbodpy6l548ckqvhcf0za"><circle cx="50" cy="25" r="40"></circle></clipPath><image preserveAspectRatio="xMidYMid slice" clip-path="url(#sbodpy6l548ckqvhcf0za)" xlink:href="https://cdn.balkan.app/shared/15.jpg" x="10" y="-15" width="80" height="80"></image></g><g node-id="16" style="opacity: 1" transform="matrix(1,0,0,1,870,630)" class="node tree-layout" sl="4" l="2"><rect fill="url(#ul0e5ycvz8gi77fbnc9kv)" x="0" y="0" height="120" width="250" stroke-width="1" stroke="#aeaeae" rx="5" ry="5"></rect><text width="235" style="font-size: 18px;" fill="#aeaeae" x="125" y="90" text-anchor="middle">Alex Snider</text><text width="140" style="font-size: 14px;" fill="#aeaeae" x="240" y="30" text-anchor="end">Sales Manager</text><clipPath id="q3h08y4rjdm9kf277nlyj9"><circle cx="50" cy="25" r="40"></circle></clipPath><image preserveAspectRatio="xMidYMid slice" clip-path="url(#q3h08y4rjdm9kf277nlyj9)" xlink:href="https://cdn.balkan.app/shared/16.jpg" x="10" y="-15" width="80" height="80"></image></g><g link-id="[1][2]" class="link "><path stroke-linejoin="round" stroke="#aeaeae" stroke-width="1px" fill="none" d="M560,120 560,142 Q560,150 552,150 L133,150 Q125,150 125,158 L125,180"></path></g><g link-id="[1][3]" class="link "><path stroke-linejoin="round" stroke="#aeaeae" stroke-width="1px" fill="none" d="M560,120 L560,180"></path></g><g link-id="[1][4]" class="link "><path stroke-linejoin="round" stroke="#aeaeae" stroke-width="1px" fill="none" d="M560,120 560,142 Q560,150 568,150 L987,150 Q995,150 995,158 L995,180"></path></g><g link-id="[2][5]" class="link "><path stroke-linejoin="round" stroke="#aeaeae" stroke-width="1px" fill="none" d="M125,300 L125,360"></path></g><g link-id="[5][6]" class="link "><path stroke-linejoin="round" stroke="#aeaeae" stroke-width="1px" fill="none" d="M125,480 L125,495"></path></g><g link-id="[6][7]" class="link "><path stroke-linejoin="round" stroke="#aeaeae" stroke-width="1px" fill="none" d="M125,615 L125,630"></path></g><g link-id="[3][8]" class="link "><path stroke-linejoin="round" stroke="#aeaeae" stroke-width="1px" fill="none" d="M560,300 560,322 Q560,330 552,330 L423,330 Q415,330 415,338 L415,360"></path></g><g link-id="[3][9]" class="link "><path stroke-linejoin="round" stroke="#aeaeae" stroke-width="1px" fill="none" d="M560,300 560,322 Q560,330 568,330 L697,330 Q705,330 705,338 L705,360"></path></g><g link-id="[8][10]" class="link "><path stroke-linejoin="round" stroke="#aeaeae" stroke-width="1px" fill="none" d="M415,480 L415,540"></path></g><g link-id="[10][11]" class="link "><path stroke-linejoin="round" stroke="#aeaeae" stroke-width="1px" fill="none" d="M415,660 L415,675"></path></g><g link-id="[9][12]" class="link "><path stroke-linejoin="round" stroke="#aeaeae" stroke-width="1px" fill="none" d="M705,480 L705,540"></path></g><g link-id="[12][13]" class="link "><path stroke-linejoin="round" stroke="#aeaeae" stroke-width="1px" fill="none" d="M705,660 L705,675"></path></g><g link-id="[4][14]" class="link "><path stroke-linejoin="round" stroke="#aeaeae" stroke-width="1px" fill="none" d="M995,300 L995,360"></path></g><g link-id="[14][15]" class="link "><path stroke-linejoin="round" stroke="#aeaeae" stroke-width="1px" fill="none" d="M995,480 L995,495"></path></g><g link-id="[15][16]" class="link "><path stroke-linejoin="round" stroke="#aeaeae" stroke-width="1px" fill="none" d="M995,615 L995,630"></path></g></svg>